<svg xmlns="http://www.w3.org/2000/svg" viewBox="0 0 24 24" fill="none" stroke="#FFD700" stroke-width="2" stroke-linecap="round" stroke-linejoin="round">
  <path d="M10.3 21a1.94 1.94 0 0 0 3.4 0"></path>
  <path d="M21 10.3a1.94 1.94 0 0 0 0-3.4"></path>
  <path d="M13.7 3a1.94 1.94 0 0 0-3.4 0"></path>
  <path d="M3 13.7a1.94 1.94 0 0 0 0-3.4"></path>
  <circle cx="12" cy="12" r="3"></circle>
  <path d="M12 21a9 9 0 0 0 9-9 9 9 0 0 0-9-9 9 9 0 0 0-9 9 9 9 0 0 0 9 9Z" stroke-dasharray="2 4" stroke-opacity="0.5"></path>
  <path d="m19.07 4.93-1.41 1.41"></path>
  <path d="m4.93 19.07 1.41-1.41"></path>
  <path d="m19.07 19.07-1.41-1.41"></path>
  <path d="m4.93 4.93 1.41 1.41"></path>
</svg>
